<svg width="22" height="21" viewBox="0 0 22 21" fill="none" xmlns="http://www.w3.org/2000/svg">
<path d="M18.7616 0H2.2616C1.66486 0 1.09256 0.237053 0.670606 0.65901C0.24865 1.08097 0.0115967 1.65326 0.0115967 2.25L0.0115967 18.75C0.0115967 19.3467 0.24865 19.919 0.670606 20.341C1.09256 20.7629 1.66486 21 2.2616 21H8.69519V13.8605H5.74207V10.5H8.69519V7.93875C8.69519 5.02547 10.4296 3.41625 13.086 3.41625C14.3582 3.41625 15.6885 3.64313 15.6885 3.64313V6.5025H14.2227C12.7785 6.5025 12.328 7.39875 12.328 8.31797V10.5H15.5521L15.0364 13.8605H12.328V21H18.7616C19.3583 21 19.9306 20.7629 20.3526 20.341C20.7745 19.919 21.0116 19.3467 21.0116 18.75V2.25C21.0116 1.65326 20.7745 1.08097 20.3526 0.65901C19.9306 0.237053 19.3583 0 18.7616 0Z" fill="white"/>
</svg>
