<svg width="18" height="18" viewBox="0 0 18 18" fill="none" xmlns="http://www.w3.org/2000/svg">
<path fill-rule="evenodd" clip-rule="evenodd" d="M9 18C13.9706 18 18 13.9706 18 9C18 4.02944 13.9706 0 9 0C4.02944 0 0 4.02944 0 9C0 13.9706 4.02944 18 9 18ZM9.00161 1C10.2857 1 11.3892 3.02258 11.857 5.90323H6.1462C6.61404 3.02258 7.71748 1 9.00161 1ZM6.01069 11.0645C5.94293 10.4032 5.90421 9.71613 5.90421 9C5.90421 8.28387 5.94293 7.59677 6.01069 6.93548H11.9893C12.0571 7.59677 12.0958 8.28387 12.0958 9C12.0958 9.71613 12.0571 10.4032 11.9893 11.0645H6.01069ZM11.2827 1.33548C13.5896 2.01935 15.4578 3.7129 16.3805 5.90323H12.8959C12.612 4.06774 12.07 2.42581 11.2827 1.33548ZM1.62271 5.90323C2.54225 3.7129 4.41359 2.01935 6.71728 1.33548C5.93003 2.42581 5.38798 4.06774 5.10728 5.90323H1.62271ZM13.025 6.93548H16.7258C16.9 7.59677 17 8.28387 17 9C17 9.71613 16.9 10.4032 16.7225 11.0645H13.025C13.0928 10.3871 13.1315 9.69355 13.1315 9C13.1315 8.30645 13.0928 7.6129 13.025 6.93548ZM4.97822 6.93548C4.91047 7.6129 4.87175 8.30645 4.87175 9C4.87175 9.69355 4.91047 10.3871 4.975 11.0645H1.27748C1.10325 10.4032 1 9.71613 1 9C1 8.28387 1.10325 7.59677 1.27748 6.93548H4.97822ZM9.00161 17C7.71748 17 6.61404 14.9774 6.1462 12.0968H11.857C11.3892 14.9774 10.2857 17 9.00161 17ZM16.3837 12.0968C15.461 14.2871 13.5896 15.9806 11.2859 16.6645C12.0732 15.5742 12.6152 13.9323 12.8992 12.0968H16.3837ZM6.72051 16.6645C4.41359 15.9806 2.54547 14.2871 1.62271 12.0968H5.10728C5.39121 13.9323 5.93325 15.5742 6.72051 16.6645Z" fill="#454868"/>
</svg>
