<svg width="22" height="21" viewBox="0 0 22 21" fill="none" xmlns="http://www.w3.org/2000/svg">
<path d="M19.5116 0H1.50691C0.681909 0 0.0115967 0.679688 0.0115967 1.51406V19.4859C0.0115967 20.3203 0.681909 21 1.50691 21H19.5116C20.3366 21 21.0116 20.3203 21.0116 19.4859V1.51406C21.0116 0.679688 20.3366 0 19.5116 0ZM6.35847 18H3.24597V7.97812H6.36316V18H6.35847ZM4.80222 6.60938C3.80378 6.60938 2.99753 5.79844 2.99753 4.80469C2.99753 3.81094 3.80378 3 4.80222 3C5.79597 3 6.60691 3.81094 6.60691 4.80469C6.60691 5.80312 5.80066 6.60938 4.80222 6.60938ZM18.0257 18H14.9132V13.125C14.9132 11.9625 14.8897 10.4672 13.296 10.4672C11.6741 10.4672 11.4257 11.7328 11.4257 13.0406V18H8.31316V7.97812H11.2991V9.34687H11.3413C11.7585 8.55937 12.7757 7.72969 14.2897 7.72969C17.4397 7.72969 18.0257 9.80625 18.0257 12.5062V18Z" fill="white"/>
</svg>
