<svg width="25" height="20" viewBox="0 0 25 20" fill="none" xmlns="http://www.w3.org/2000/svg">
<path d="M21.5447 4.85784C21.5599 5.07103 21.5599 5.28427 21.5599 5.49745C21.5599 12 16.6107 19.4924 7.56501 19.4924C4.7782 19.4924 2.18939 18.6852 0.0117188 17.2843C0.407672 17.3299 0.788344 17.3452 1.19953 17.3452C3.49898 17.3452 5.61577 16.5685 7.30612 15.2437C5.14369 15.198 3.3315 13.7817 2.70712 11.8325C3.01172 11.8781 3.31627 11.9086 3.63609 11.9086C4.0777 11.9086 4.51936 11.8477 4.9305 11.7411C2.6767 11.2842 0.986297 9.30455 0.986297 6.91369V6.8528C1.64109 7.21828 2.40258 7.4467 3.20962 7.47712C1.88475 6.59386 1.01677 5.08627 1.01677 3.38067C1.01677 2.46698 1.26037 1.62942 1.6868 0.898453C4.10812 3.88322 7.74773 5.83242 11.8289 6.04566C11.7528 5.68017 11.7071 5.2995 11.7071 4.91878C11.7071 2.20809 13.9 0 16.6259 0C18.0421 0 19.3213 0.593906 20.2198 1.5533C21.3314 1.34011 22.3974 0.928922 23.3416 0.365484C22.9761 1.50764 22.1994 2.46703 21.1792 3.07613C22.169 2.96958 23.1284 2.69541 24.0116 2.31473C23.3417 3.28931 22.5041 4.1573 21.5447 4.85784Z" fill="white"/>
</svg>
